<svg xmlns="http://www.w3.org/2000/svg" width="20.111" height="13.924"><g data-name="Express Delivery" fill-rule="evenodd"><path data-name="Path 2236" d="M13.146 11.346H9.02a.258.258 0 1 0 0 .515h4.126a.258.258 0 1 0 0-.515Z"/><path data-name="Path 2237" d="M3.867 11.346H1.805a.258.258 0 0 0 0 .515h2.062a.258.258 0 1 0 0-.515Z"/><path data-name="Path 2238" d="M8.509 7.736H.258a.258.258 0 1 0 0 .515h8.25a.258.258 0 0 0 0-.515Z"/><path data-name="Path 2239" d="M2.063 6.447a.257.257 0 0 0 .258.258H9.54a.258.258 0 0 0 0-.515H2.321a.257.257 0 0 0-.258.257Z"/><path data-name="Path 2240" d="M1.29 5.157h7.219a.258.258 0 1 0 0-.515H1.29a.258.258 0 1 0 0 .515Z"/><path data-name="Path 2241" d="M9.024 3.095H3.868a.258.258 0 1 0 0 .515h5.156a.258.258 0 1 0 0-.515Z"/><path data-name="Path 2242" d="M19.914 7.091 17.8 3.7a1.289 1.289 0 0 0-1.1-.6h-2.262V1.29A1.289 1.289 0 0 0 13.148 0h-9.28a.258.258 0 0 0 0 .515h9.282a.773.773 0 0 1 .773.773V9.8a.258.258 0 1 0 .515 0V3.61H16.7a.773.773 0 0 1 .656.364l2.119 3.39a.774.774 0 0 1 .118.41v2.8a.773.773 0 0 1-.773.773h-.515a.258.258 0 1 0 0 .515h.515a1.289 1.289 0 0 0 1.29-1.29v-2.8a1.292 1.292 0 0 0-.196-.681Z"/><path data-name="Path 2243" d="M6.446 10.314a1.805 1.805 0 1 0 1.805 1.805 1.805 1.805 0 0 0-1.805-1.805Zm0 3.095a1.29 1.29 0 1 1 1.29-1.29 1.289 1.289 0 0 1-1.29 1.29Z"/><path data-name="Path 2244" d="M15.728 10.314a1.805 1.805 0 1 0 1.805 1.805 1.805 1.805 0 0 0-1.805-1.805Zm0 3.095a1.29 1.29 0 1 1 1.29-1.29 1.289 1.289 0 0 1-1.29 1.29Z"/><path data-name="Path 2245" d="M18.201 5.939a.257.257 0 0 0-.258-.258h-1.031a.257.257 0 0 1-.258-.258V4.392a.258.258 0 0 0-.515 0v1.031a.773.773 0 0 0 .773.773h1.031a.256.256 0 0 0 .258-.257Z"/></g></svg>
