<svg xmlns="http://www.w3.org/2000/svg" width="20.061" height="19.197"><path data-name="Path 2234" d="m18.256 7.41 1.286-1.281a1.594 1.594 0 0 0 .031-2.326 1.7 1.7 0 0 0-1.013-.6 1.851 1.851 0 0 0-.013-2.329 1.457 1.457 0 0 0-.988-.6 2.469 2.469 0 0 0-1.632.518l-.519.5A1.977 1.977 0 0 0 15 .536a1.744 1.744 0 0 0-2.461-.025L6.246 6.737l.925-1.633a2.216 2.216 0 0 0 .3-1.575 1.5 1.5 0 0 0-.809-.935 1.943 1.943 0 0 0-2.536.965c-.023.04-2.321 4.031-3.654 6.634-1.431 2.793.846 5.89.931 6a7.069 7.069 0 0 0 5.6 3.006 7.2 7.2 0 0 0 5.29-1.908l6.768-6.857a2.038 2.038 0 0 0 .68-1.277 1.567 1.567 0 0 0-.45-1.182 1.624 1.624 0 0 0-1.035-.565Zm.762 1.694a1.338 1.338 0 0 1-.45.8l-6.799 6.893a6.625 6.625 0 0 1-4.771 1.68 6.464 6.464 0 0 1-5.007-2.7c-.022-.029-2.105-2.872-.88-5.263 1.326-2.588 3.614-6.563 3.638-6.6.067-.118.689-1.139 1.586-.682a.78.78 0 0 1 .441.481 1.491 1.491 0 0 1-.222 1.018L4.341 8.637a.359.359 0 0 0 .566.433l8.1-8.022c.037-.029.9-.69 1.435-.054.514.617.21 1.014.147 1.084L10.032 6.83a.36.36 0 0 0 .519.5l4.557-4.753 1.287-1.248a1.69 1.69 0 0 1 1.068-.35.754.754 0 0 1 .509.323 1.123 1.123 0 0 1 .033 1.439l-5.946 5.946a.36.36 0 0 0 .508.508l5.041-5.042a.977.977 0 0 1 1.421.119.887.887 0 0 1 .017 1.332l-5.077 5.059a.36.36 0 0 0 .508.509L17.2 8.461a1.111 1.111 0 0 1 1.552-.005.873.873 0 0 1 .266.648Z"/><path data-name="Path 2235" d="M9.963 10.223a1.6 1.6 0 0 0-1.453.54 1.6 1.6 0 0 0-1.453-.54 1.754 1.754 0 0 0-1.459 1.072 1.7 1.7 0 0 0 .35 1.745c.8.925 2.256 2.283 2.318 2.34a.361.361 0 0 0 .244.1.355.355 0 0 0 .244-.1c.062-.057 1.522-1.416 2.318-2.34a1.7 1.7 0 0 0 .35-1.745 1.755 1.755 0 0 0-1.459-1.072Zm.564 2.348c-.58.674-1.563 1.621-2.017 2.052-.455-.431-1.437-1.378-2.017-2.052a.986.986 0 0 1-.225-1.014 1.025 1.025 0 0 1 .872-.619 1.3 1.3 0 0 1 .141-.008.924.924 0 0 1 .884.651.36.36 0 0 0 .691 0 .917.917 0 0 1 1.026-.642 1.025 1.025 0 0 1 .872.619.989.989 0 0 1-.227 1.012Z"/></svg>